<?xml version="1.0" standalone="no"?>
<!DOCTYPE svg PUBLIC "-//W3C//DTD SVG 20010904//EN"
 "http://www.w3.org/TR/2001/REC-SVG-20010904/DTD/svg10.dtd">
<svg version="1.0" xmlns="http://www.w3.org/2000/svg"
 width="1891.000000pt" height="1891.000000pt" viewBox="0 0 1891.000000 1891.000000"
 preserveAspectRatio="xMidYMid meet">

<g transform="translate(0.000000,1891.000000) scale(0.100000,-0.100000)"
fill="#000000" stroke="none">
<path d="M9039 18900 c-2207 -111 -4207 -922 -5859 -2378 -301 -265 -715 -693
-986 -1018 -1677 -2014 -2441 -4617 -2118 -7219 276 -2228 1335 -4279 2994
-5799 672 -616 1406 -1118 2215 -1516 1050 -516 2141 -822 3310 -929 1997
-183 4016 277 5724 1306 1800 1084 3189 2731 3948 4678 555 1426 755 2989 577
4525 -203 1760 -899 3427 -2008 4810 -408 510 -953 1056 -1456 1459 -787 632
-1637 1118 -2580 1478 -747 285 -1586 481 -2400 563 -392 39 -1019 57 -1361
40z m831 -880 c1360 -71 2637 -437 3794 -1090 1128 -636 2107 -1529 2844
-2591 350 -504 691 -1135 891 -1646 l21 -53 -518 1 -517 0 -65 136 c-215 450
-530 950 -877 1390 -354 449 -833 926 -1283 1278 -1122 879 -2452 1422 -3859
1575 -318 35 -501 44 -861 44 -358 1 -522 -8 -842 -44 -1716 -195 -3299 -960
-4527 -2189 -588 -589 -1085 -1276 -1439 -1993 l-97 -197 -517 0 -518 -1 9 23
c293 740 741 1506 1252 2142 1143 1423 2670 2432 4409 2915 870 242 1809 346
2700 300z m-30 -980 c731 -40 1376 -161 2048 -386 922 -309 1794 -809 2552
-1463 191 -165 583 -557 752 -751 878 -1013 1463 -2202 1722 -3500 189 -945
194 -2001 15 -2920 -187 -959 -536 -1836 -1054 -2650 -801 -1258 -1981 -2273
-3340 -2875 -789 -349 -1632 -558 -2525 -627 -219 -16 -918 -17 -1125 0 -878
70 -1711 279 -2503 628 -163 72 -521 253 -682 345 -956 546 -1818 1330 -2451
2229 -561 795 -940 1627 -1174 2573 -207 833 -264 1693 -175 2592 142 1415
695 2780 1588 3913 354 450 819 916 1267 1269 957 754 2050 1258 3235 1492
355 69 675 109 1095 134 127 8 588 6 755 -3z m-8093 -11398 c246 -495 482
-881 801 -1310 465 -626 1047 -1219 1667 -1698 644 -498 1401 -923 2175 -1220
1503 -576 3156 -712 4768 -393 1246 246 2435 778 3458 1545 559 419 1122 964
1560 1509 411 510 831 1183 1084 1733 l65 142 443 0 c243 0 442 -2 442 -4 0
-2 -22 -57 -49 -123 -384 -934 -936 -1818 -1637 -2618 -172 -197 -571 -599
-759 -767 -686 -609 -1390 -1083 -2180 -1469 -1647 -804 -3502 -1107 -5345
-873 -1446 184 -2861 720 -4070 1542 -826 562 -1527 1218 -2151 2012 -433 550
-845 1227 -1130 1855 -68 150 -100 226 -186 433 -4 9 88 12 443 11 l449 0 152
-307z"/>
</g>
</svg>
